HIERARCHY
ROOT Hips
{
	OFFSET 55.142899 -37.039017 91.691093
	CHANNELS 6 Xposition Yposition Zposition Xrotation Yrotation Zrotation
	JOINT spine
	{
		OFFSET 0.000000 -0.393700 6.846367
		CHANNELS 3 Xrotation Yrotation Zrotation
		JOINT spine1
		{
			OFFSET 0.000000 -0.000004 9.496208
			CHANNELS 3 Xrotation Yrotation Zrotation
			JOINT spine2
			{
				OFFSET 0.000000 0.000000 9.099091
				CHANNELS 3 Xrotation Yrotation Zrotation
				JOINT Neck
				{
					OFFSET 0.000000 -1.113785 23.361214
					CHANNELS 3 Xrotation Yrotation Zrotation
					JOINT Head
					{
						OFFSET 0.000000 0.000000 7.058014
						CHANNELS 3 Xrotation Yrotation Zrotation
						End Site
						{
							OFFSET 0.000000 5.634186 17.084396
						}
					}
				}
				JOINT RightShoulder
				{
					OFFSET -3.831360 0.533489 9.826309
					CHANNELS 3 Xrotation Yrotation Zrotation
					JOINT RightArm
					{
						OFFSET 0.000000 -0.000004 12.888100
						CHANNELS 3 Xrotation Yrotation Zrotation
						JOINT RightArmRoll
						{
							OFFSET 0.000000 0.000000 6.506165
							CHANNELS 3 Xrotation Yrotation Zrotation
							JOINT RightForeArm
							{
								OFFSET 0.000000 -0.000004 18.950104
								CHANNELS 3 Xrotation Yrotation Zrotation
								JOINT RightForeArmRoll
								{
									OFFSET 0.000000 0.000000 7.300919
									CHANNELS 3 Xrotation Yrotation Zrotation
									JOINT RightHand
									{
										OFFSET 0.000000 -0.000004 14.651398
										CHANNELS 3 Xrotation Yrotation Zrotation
										End Site
										{
											OFFSET 0.000000 0.000000 0.100006
										}
									}
								}
							}
						}
					}
				}
				JOINT LeftShoulder
				{
					OFFSET 3.831360 0.533489 9.826309
					CHANNELS 3 Xrotation Yrotation Zrotation
					JOINT LeftArm
					{
						OFFSET 0.000000 -0.000004 12.888100
						CHANNELS 3 Xrotation Yrotation Zrotation
						JOINT LeftArmRoll
						{
							OFFSET 0.000000 0.000000 6.506165
							CHANNELS 3 Xrotation Yrotation Zrotation
							JOINT LeftForeArm
							{
								OFFSET 0.000000 -0.000004 18.950104
								CHANNELS 3 Xrotation Yrotation Zrotation
								JOINT LeftForeArmRoll
								{
									OFFSET 0.000000 0.000000 7.300934
									CHANNELS 3 Xrotation Yrotation Zrotation
									JOINT LeftHand
									{
										OFFSET 0.000000 -0.000004 14.651398
										CHANNELS 3 Xrotation Yrotation Zrotation
										End Site
										{
											OFFSET 0.000000 0.000000 0.100006
										}
									}
								}
							}
						}
					}
				}
			}
		}
	}
	JOINT RightUpLeg
	{
		OFFSET -6.068371 0.933475 -1.112778
		CHANNELS 3 Xrotation Yrotation Zrotation
		JOINT RightUpLegRoll
		{
			OFFSET 0.000000 -0.000004 17.179596
			CHANNELS 3 Xrotation Yrotation Zrotation
			JOINT RightLeg
			{
				OFFSET 0.000000 0.000004 -21.274300
				CHANNELS 3 Xrotation Yrotation Zrotation
				JOINT RightLegRoll
				{
					OFFSET 0.000000 -0.000004 21.343903
					CHANNELS 3 Xrotation Yrotation Zrotation
					JOINT RightFoot
					{
						OFFSET 0.000000 0.000000 17.765198
						CHANNELS 3 Xrotation Yrotation Zrotation
						JOINT RightToeBase
						{
							OFFSET 0.000000 -0.000004 14.850800
							CHANNELS 3 Xrotation Yrotation Zrotation
							End Site
							{
								OFFSET 0.006294 0.829006 7.192123
							}
						}
					}
				}
			}
		}
	}
	JOINT LeftUpLeg
	{
		OFFSET 6.068371 0.933475 -1.112778
		CHANNELS 3 Xrotation Yrotation Zrotation
		JOINT LeftUpLegRoll
		{
			OFFSET 0.000000 -0.000004 17.179703
			CHANNELS 3 Xrotation Yrotation Zrotation
			JOINT LeftLeg
			{
				OFFSET 0.000000 -0.000004 21.274208
				CHANNELS 3 Xrotation Yrotation Zrotation
				JOINT LeftLegRoll
				{
					OFFSET 0.000000 0.000000 21.541199
					CHANNELS 3 Xrotation Yrotation Zrotation
					JOINT LeftFoot
					{
						OFFSET 0.000000 -0.000004 17.567902
						CHANNELS 3 Xrotation Yrotation Zrotation
						JOINT LeftToeBase
						{
							OFFSET 0.000000 -0.000004 14.850800
							CHANNELS 3 Xrotation Yrotation Zrotation
							End Site
							{
								OFFSET -0.028210 0.829002 7.192139
							}
						}
					}
				}
			}
		}
	}
}
MOTION
Frames: 8
Frame Time: 0.041667
55.065300 -13.157001 79.573395 33.033537 3.425416 -4.103788 -0.697483 -0.444233 0.329335 2.611445 -0.887124 0.657621 4.256560 -0.879184 0.668201 -19.139326 -8.918339 -1.951095 5.882119 3.315808 0.858755 18.661639 -69.877541 19.244864 97.451486 -50.147689 79.449027 -0.000001 -0.000001 0.000006 13.571416 -28.696609 4.831672 -0.000009 0.000003 -3.000002 -4.999605 -7.998832 -0.000057 -6.458704 49.704745 6.785687 -54.451491 156.843587 45.162143 -0.000004 0.000012 0.000005 0.063054 8.457866 1.973646 -0.000011 -0.000004 3.346010 -5.000366 7.999120 -0.000237 -75.714532 -179.930651 -0.152684 179.999991 -0.000005 -0.530004 134.940359 -4.995364 -3.642812 -0.000001 -0.000001 0.790590 67.652395 6.966290 2.035487 25.456960 -7.355623 0.000006 -78.107844 165.904653 0.974663 -0.000020 -0.000004 -0.400333 -51.744735 5.257974 4.427789 -0.000005 0.000002 -0.733848 70.254875 -6.985142 -1.792321 25.456957 7.355624 -0.000006 
55.056801 -13.264910 79.668091 32.909088 3.416740 -4.097461 -0.697999 -0.441438 0.327599 2.610335 -0.882048 0.654239 4.255453 -0.874149 0.664759 -19.171513 -8.906396 -1.947762 5.932218 3.305990 0.860666 18.779159 -69.946041 19.358508 97.468698 -50.154024 79.764814 -0.000002 -0.000001 0.000005 13.202335 -28.639765 4.709121 -0.000007 0.000002 -2.999999 -4.999605 -7.998832 -0.000060 -6.418301 49.790686 6.744056 -54.454168 156.816936 44.890370 -0.000004 0.000013 0.000006 0.060925 8.176645 1.925595 -0.000012 -0.000002 3.346519 -5.000365 7.999121 -0.000237 -75.369143 -179.953519 -0.191433 179.999991 -0.000005 -0.530004 135.145374 -4.965308 -3.611858 -0.000001 -0.000001 0.786038 67.649499 6.964658 2.039746 25.456957 -7.355623 0.000006 -77.749580 165.928190 0.960139 -0.000017 -0.000003 -0.402297 -51.549736 5.269380 4.409897 -0.000005 0.000001 -0.729020 70.260250 -6.983783 -1.795344 25.456959 7.355624 -0.000005 
55.095901 -13.416712 79.756096 32.783248 3.405689 -4.090977 -0.698226 -0.438071 0.326019 2.609828 -0.875897 0.651212 4.254937 -0.868037 0.661660 -19.197777 -8.895404 -1.944068 5.976140 3.297481 0.862775 18.892959 -70.014446 19.467964 97.482372 -50.155773 80.082670 -0.000001 -0.000000 0.000002 12.798380 -28.577093 4.578475 -0.000009 0.000004 -2.999999 -4.999604 -7.998833 -0.000060 -6.361569 49.886312 6.683022 -54.464591 156.773701 44.633937 -0.000003 0.000013 0.000005 0.058916 7.910246 1.878262 -0.000012 -0.000004 3.346959 -5.000365 7.999122 -0.000236 -75.023488 -179.977260 -0.232682 179.999991 -0.000005 -0.531001 135.349324 -4.931890 -3.579457 -0.000001 -0.000001 0.781458 67.647464 6.963142 2.043775 25.456959 -7.355624 0.000006 -77.389602 165.952819 0.943464 -0.000020 -0.000003 -0.404197 -51.355052 5.281666 4.392429 -0.000005 0.000002 -0.724127 70.266281 -6.982434 -1.798331 25.456957 7.355624 -0.000005 
55.111000 -13.537306 79.879982 32.656234 3.392658 -4.084397 -0.698223 -0.434232 0.324583 2.609749 -0.868852 0.648508 4.254864 -0.861027 0.658874 -19.218607 -8.885195 -1.940023 6.014733 3.290078 0.865029 19.003511 -70.082788 19.573837 97.492843 -50.154223 80.401551 -0.000002 -0.000002 0.000008 12.365838 -28.508938 4.441529 -0.000008 0.000003 -3.000004 -4.999605 -7.998829 -0.000062 -6.290712 49.990383 6.605190 -54.482100 156.715043 44.392504 -0.000004 0.000012 0.000005 0.057019 7.657226 1.831592 -0.000010 -0.000002 3.347338 -5.000365 7.999119 -0.000238 -74.677668 -180.001849 -0.275699 179.999991 -0.000005 -0.531998 135.552207 -4.895827 -3.546353 -0.000001 -0.000001 0.776855 67.646105 6.961723 2.047479 25.456957 -7.355622 0.000005 -77.028640 165.978337 0.925674 -0.000018 -0.000003 -0.406047 -51.160740 5.294621 4.375286 -0.000005 0.000002 -0.719187 70.272832 -6.981059 -1.801279 25.456957 7.355623 -0.000005 
55.106701 -13.648605 79.976295 32.528469 3.378066 -4.077795 -0.698052 -0.430015 0.323281 2.609986 -0.861098 0.646089 4.255103 -0.853302 0.656363 -19.234405 -8.875615 -1.935659 6.048833 3.283597 0.867396 19.111050 -70.150735 19.676402 97.500329 -50.150657 80.719790 -0.000001 -0.000001 0.000005 11.911451 -28.435985 4.300292 -0.000009 0.000002 -3.000002 -4.999607 -7.998829 -0.000059 -6.207875 50.101470 6.513096 -54.504916 156.643886 44.162719 -0.000005 0.000013 0.000005 0.055217 7.416127 1.785553 -0.000012 -0.000004 3.347669 -5.000364 7.999120 -0.000236 -74.331890 -180.026738 -0.321719 179.999991 -0.000005 -0.532996 135.754436 -4.857121 -3.512536 -0.000001 -0.000001 0.772232 67.645183 6.960382 2.050972 25.456957 -7.355623 0.000005 -76.666913 166.004374 0.907111 -0.000020 -0.000002 -0.407853 -50.966674 5.308055 4.358377 -0.000004 0.000002 -0.714220 70.279826 -6.979721 -1.804008 25.456957 7.355623 -0.000006 
55.117699 -13.772409 80.081581 32.400075 3.362305 -4.071220 -0.697796 -0.425522 0.322099 2.610380 -0.852813 0.643918 4.255506 -0.845046 0.654095 -19.245661 -8.866494 -1.930995 6.079284 3.277854 0.869842 19.216041 -70.218245 19.776212 97.505383 -50.146252 81.036411 -0.000002 -0.000002 0.000004 11.441721 -28.359034 4.156660 -0.000008 0.000002 -3.000004 -4.999606 -7.998831 -0.000062 -6.115224 50.218006 6.409304 -54.531991 156.561897 43.943439 -0.000003 0.000012 0.000005 0.053497 7.185497 1.740109 -0.000011 -0.000001 3.347940 -5.000364 7.999118 -0.000237 -73.986050 -180.052133 -0.369174 179.999991 -0.000004 -0.534007 135.956145 -4.816503 -3.478709 -0.000001 -0.000001 0.767596 67.644588 6.959107 2.054155 25.456962 -7.355623 0.000006 -76.304927 166.030902 0.888285 -0.000018 -0.000003 -0.409623 -50.772860 5.321766 4.341613 -0.000005 0.000001 -0.709240 70.287011 -6.978355 -1.806816 25.456959 7.355623 -0.000005 
55.119202 -13.883413 80.203293 32.271350 3.345785 -4.064720 -0.697526 -0.420848 0.321029 2.610816 -0.844181 0.641960 4.255930 -0.836440 0.652036 -19.252889 -8.857654 -1.926058 6.106918 3.272642 0.872321 19.318901 -70.285167 19.873742 97.508225 -50.142283 81.350019 -0.000002 -0.000001 0.000003 10.963107 -28.278576 4.012361 -0.000008 0.000002 -3.000001 -4.999606 -7.998830 -0.000062 -6.014992 50.338757 6.296469 -54.562136 156.470727 43.733046 -0.000004 0.000013 0.000005 0.051852 6.963907 1.695193 -0.000010 -0.000003 3.348160 -5.000365 7.999120 -0.000236 -73.640552 -180.078033 -0.417486 179.999991 -0.000005 -0.535003 136.157349 -4.774686 -3.443561 -0.000000 -0.000001 0.762950 67.644213 6.957814 2.057423 25.456959 -7.355621 0.000005 -75.943084 166.057622 0.869458 -0.000016 -0.000004 -0.411364 -50.578944 5.335594 4.324890 -0.000004 0.000002 -0.704266 70.294313 -6.976990 -1.809621 25.456957 7.355625 -0.000005 
55.127399 -14.004612 80.300896 32.142430 3.328914 -4.058356 -0.697311 -0.416094 0.320058 2.611125 -0.835383 0.640181 4.256244 -0.827664 0.650152 -19.256369 -8.848959 -1.920845 6.132571 3.267793 0.874810 19.419992 -70.351365 19.969436 97.509427 -50.139917 81.659604 -0.000002 -0.000001 0.000000 10.482095 -28.195415 3.869157 -0.000008 0.000003 -3.000000 -4.999608 -7.998829 -0.000057 -5.909379 50.462298 6.177207 -54.593825 156.373383 43.528410 -0.000006 0.000012 0.000005 0.050264 6.749888 1.650783 -0.000011 -0.000002 3.348339 -5.000365 7.999120 -0.000238 -73.295388 -180.104056 -0.467108 179.999991 -0.000005 -0.535004 136.358621 -4.730974 -3.408384 -0.000001 -0.000001 0.758298 67.643646 6.956615 2.060521 25.456957 -7.355623 0.000005 -75.581343 166.084833 0.849244 -0.000015 -0.000004 -0.413085 -50.385124 5.349302 4.308119 -0.000005 0.000002 -0.699316 70.301505 -6.975621 -1.812431 25.456960 7.355624 -0.000006 
